<svg width="13" height="14" viewBox="0 0 13 14" fill="none" xmlns="http://www.w3.org/2000/svg">
<path fill-rule="evenodd" clip-rule="evenodd" d="M1.8 0.942383H1.75C1.521 0.942383 1.324 0.942383 1.15 0.983383C0.880636 1.04775 0.63435 1.18543 0.438431 1.38117C0.242511 1.57692 0.104608 1.82308 0.04 2.09238C-3.72529e-08 2.26638 0 2.46238 0 2.69238V5.19238C0 5.42138 7.45058e-09 5.61838 0.041 5.79238C0.105365 6.06175 0.243046 6.30803 0.438789 6.50395C0.634532 6.69987 0.880694 6.83778 1.15 6.90238C1.324 6.94238 1.52 6.94238 1.75 6.94238H4.25C4.479 6.94238 4.676 6.94238 4.85 6.90138C5.11936 6.83702 5.36565 6.69934 5.56157 6.50359C5.75749 6.30785 5.89539 6.06169 5.96 5.79238C6 5.61838 6 5.42238 6 5.19238V2.69238C6 2.46338 6 2.26638 5.959 2.09238C5.89464 1.82302 5.75695 1.57673 5.56121 1.38081C5.36547 1.18489 5.11931 1.04699 4.85 0.982383C4.676 0.942383 4.48 0.942383 4.25 0.942383H1.8ZM1.383 1.95638C1.426 1.94638 1.493 1.94238 1.8 1.94238H4.2C4.508 1.94238 4.574 1.94538 4.617 1.95638C4.70683 1.97786 4.78895 2.02381 4.85426 2.08912C4.91957 2.15443 4.96552 2.23655 4.987 2.32638C4.997 2.36838 5 2.43438 5 2.74238V5.14238C5 5.45038 4.997 5.51638 4.986 5.55938C4.96452 5.64921 4.91857 5.73134 4.85326 5.79665C4.78795 5.86196 4.70583 5.9079 4.616 5.92938C4.575 5.93838 4.509 5.94238 4.2 5.94238H1.8C1.492 5.94238 1.426 5.93938 1.383 5.92838C1.29317 5.9069 1.21105 5.86096 1.14574 5.79565C1.08043 5.73034 1.03448 5.64821 1.013 5.55838C1.004 5.51738 1 5.45138 1 5.14238V2.74238C1 2.43438 1.003 2.36838 1.014 2.32538C1.03548 2.23555 1.08143 2.15343 1.14674 2.08812C1.21205 2.02281 1.29417 1.97686 1.384 1.95538L1.383 1.95638ZM8.8 0.942383H8.75C8.521 0.942383 8.324 0.942383 8.15 0.983383C7.88064 1.04775 7.63435 1.18543 7.43843 1.38117C7.24251 1.57692 7.10461 1.82308 7.04 2.09238C7 2.26638 7 2.46238 7 2.69238V5.19238C7 5.42138 7 5.61838 7.041 5.79238C7.10537 6.06175 7.24305 6.30803 7.43879 6.50395C7.63453 6.69987 7.88069 6.83778 8.15 6.90238C8.324 6.94238 8.52 6.94238 8.75 6.94238H11.25C11.479 6.94238 11.676 6.94238 11.85 6.90138C12.1194 6.83702 12.3657 6.69934 12.5616 6.50359C12.7575 6.30785 12.8954 6.06169 12.96 5.79238C13 5.61838 13 5.42238 13 5.19238V2.69238C13 2.46338 13 2.26638 12.959 2.09238C12.8946 1.82302 12.757 1.57673 12.5612 1.38081C12.3655 1.18489 12.1193 1.04699 11.85 0.982383C11.676 0.942383 11.48 0.942383 11.25 0.942383H8.8ZM8.383 1.95638C8.426 1.94638 8.493 1.94238 8.8 1.94238H11.2C11.508 1.94238 11.574 1.94538 11.617 1.95638C11.7068 1.97786 11.789 2.02381 11.8543 2.08912C11.9196 2.15443 11.9655 2.23655 11.987 2.32638C11.997 2.36838 12 2.43438 12 2.74238V5.14238C12 5.45038 11.996 5.51638 11.986 5.55938C11.9645 5.64921 11.9186 5.73134 11.8533 5.79665C11.788 5.86196 11.7058 5.9079 11.616 5.92938C11.574 5.93938 11.508 5.94238 11.2 5.94238H8.8C8.492 5.94238 8.426 5.93938 8.383 5.92838C8.29317 5.9069 8.21105 5.86096 8.14574 5.79565C8.08043 5.73034 8.03448 5.64821 8.013 5.55838C8.004 5.51738 8 5.45138 8 5.14238V2.74238C8 2.43438 8.003 2.36838 8.014 2.32538C8.03548 2.23555 8.08142 2.15343 8.14674 2.08812C8.21205 2.02281 8.29417 1.97686 8.384 1.95538L8.383 1.95638ZM1.75 7.94238H4.25C4.479 7.94238 4.676 7.94238 4.85 7.98338C5.11936 8.04775 5.36565 8.18543 5.56157 8.38117C5.75749 8.57692 5.89539 8.82308 5.96 9.09238C6 9.26638 6 9.46238 6 9.69238V12.1924C6 12.4214 6 12.6184 5.959 12.7924C5.89464 13.0617 5.75695 13.308 5.56121 13.504C5.36547 13.6999 5.11931 13.8378 4.85 13.9024C4.676 13.9424 4.48 13.9424 4.25 13.9424H1.75C1.521 13.9424 1.324 13.9424 1.15 13.9014C0.880636 13.837 0.63435 13.6993 0.438431 13.5036C0.242511 13.3079 0.104608 13.0617 0.04 12.7924C-3.72529e-08 12.6184 0 12.4224 0 12.1924V9.69238C0 9.46338 7.45058e-09 9.26638 0.041 9.09238C0.105365 8.82302 0.243046 8.57673 0.438789 8.38081C0.634532 8.18489 0.880694 8.04699 1.15 7.98238C1.324 7.94238 1.52 7.94238 1.75 7.94238ZM1.8 8.94238C1.492 8.94238 1.426 8.94538 1.383 8.95638C1.29317 8.97786 1.21105 9.02381 1.14574 9.08912C1.08043 9.15443 1.03448 9.23655 1.013 9.32638C1.004 9.36738 1 9.43338 1 9.74238V12.1424C1 12.4504 1.003 12.5164 1.014 12.5594C1.03548 12.6492 1.08143 12.7313 1.14674 12.7966C1.21205 12.862 1.29417 12.9079 1.384 12.9294C1.426 12.9394 1.492 12.9424 1.8 12.9424H4.2C4.508 12.9424 4.574 12.9384 4.617 12.9284C4.70683 12.9069 4.78895 12.861 4.85426 12.7956C4.91957 12.7303 4.96552 12.6482 4.987 12.5584C4.997 12.5164 5 12.4504 5 12.1424V9.74238C5 9.43438 4.997 9.36838 4.986 9.32538C4.96452 9.23555 4.91857 9.15343 4.85326 9.08812C4.78795 9.02281 4.70583 8.97686 4.616 8.95538C4.575 8.94638 4.509 8.94238 4.2 8.94238H1.8ZM8.8 7.94238H8.75C8.521 7.94238 8.324 7.94238 8.15 7.98338C7.88064 8.04775 7.63435 8.18543 7.43843 8.38117C7.24251 8.57692 7.10461 8.82308 7.04 9.09238C7 9.26638 7 9.46238 7 9.69238V12.1924C7 12.4214 7 12.6184 7.041 12.7924C7.10537 13.0617 7.24305 13.308 7.43879 13.504C7.63453 13.6999 7.88069 13.8378 8.15 13.9024C8.324 13.9434 8.521 13.9434 8.75 13.9434H11.25C11.479 13.9434 11.676 13.9434 11.85 13.9024C12.1192 13.8379 12.3653 13.7001 12.561 13.5044C12.7567 13.3086 12.8945 13.0626 12.959 12.7934C13 12.6194 13 12.4224 13 12.1934V9.69238C13 9.46338 13 9.26638 12.959 9.09238C12.8946 8.82302 12.757 8.57673 12.5612 8.38081C12.3655 8.18489 12.1193 8.04699 11.85 7.98238C11.676 7.94238 11.48 7.94238 11.25 7.94238H8.8ZM8.383 8.95638C8.426 8.94638 8.493 8.94238 8.8 8.94238H11.2C11.508 8.94238 11.574 8.94538 11.617 8.95638C11.7068 8.97786 11.789 9.02381 11.8543 9.08912C11.9196 9.15443 11.9655 9.23655 11.987 9.32638C11.997 9.36838 12 9.43438 12 9.74238V12.1424C12 12.4504 11.996 12.5164 11.986 12.5594C11.9645 12.6492 11.9186 12.7313 11.8533 12.7966C11.788 12.862 11.7058 12.9079 11.616 12.9294C11.574 12.9394 11.508 12.9424 11.2 12.9424H8.8C8.492 12.9424 8.426 12.9384 8.383 12.9284C8.29317 12.9069 8.21105 12.861 8.14574 12.7956C8.08043 12.7303 8.03448 12.6482 8.013 12.5584C8.004 12.5174 8 12.4514 8 12.1424V9.74238C8 9.43438 8.003 9.36838 8.014 9.32538C8.03548 9.23555 8.08142 9.15343 8.14674 9.08812C8.21205 9.02281 8.29417 8.97686 8.384 8.95538L8.383 8.95638Z" fill="#252525"/>
</svg>
