<svg width="15" height="16" viewBox="0 0 15 16" fill="none" xmlns="http://www.w3.org/2000/svg">
<path d="M10.625 9.17161C10.7908 9.17161 10.9497 9.10028 11.0669 8.9733C11.1842 8.84632 11.25 8.6741 11.25 8.49453C11.25 8.31495 11.1842 8.14273 11.0669 8.01576C10.9497 7.88878 10.7908 7.81744 10.625 7.81744C10.4592 7.81744 10.3003 7.88878 10.1831 8.01576C10.0658 8.14273 10 8.31495 10 8.49453C10 8.6741 10.0658 8.84632 10.1831 8.9733C10.3003 9.10028 10.4592 9.17161 10.625 9.17161ZM10.625 11.8799C10.7908 11.8799 10.9497 11.8086 11.0669 11.6816C11.1842 11.5547 11.25 11.3824 11.25 11.2029C11.25 11.0233 11.1842 10.8511 11.0669 10.7241C10.9497 10.5971 10.7908 10.5258 10.625 10.5258C10.4592 10.5258 10.3003 10.5971 10.1831 10.7241C10.0658 10.8511 10 11.0233 10 11.2029C10 11.3824 10.0658 11.5547 10.1831 11.6816C10.3003 11.8086 10.4592 11.8799 10.625 11.8799ZM8.125 8.49453C8.125 8.6741 8.05915 8.84632 7.94194 8.9733C7.82473 9.10028 7.66576 9.17161 7.5 9.17161C7.33424 9.17161 7.17527 9.10028 7.05806 8.9733C6.94085 8.84632 6.875 8.6741 6.875 8.49453C6.875 8.31495 6.94085 8.14273 7.05806 8.01576C7.17527 7.88878 7.33424 7.81744 7.5 7.81744C7.66576 7.81744 7.82473 7.88878 7.94194 8.01576C8.05915 8.14273 8.125 8.31495 8.125 8.49453ZM8.125 11.2029C8.125 11.3824 8.05915 11.5547 7.94194 11.6816C7.82473 11.8086 7.66576 11.8799 7.5 11.8799C7.33424 11.8799 7.17527 11.8086 7.05806 11.6816C6.94085 11.5547 6.875 11.3824 6.875 11.2029C6.875 11.0233 6.94085 10.8511 7.05806 10.7241C7.17527 10.5971 7.33424 10.5258 7.5 10.5258C7.66576 10.5258 7.82473 10.5971 7.94194 10.7241C8.05915 10.8511 8.125 11.0233 8.125 11.2029ZM4.375 9.17161C4.54076 9.17161 4.69973 9.10028 4.81694 8.9733C4.93415 8.84632 5 8.6741 5 8.49453C5 8.31495 4.93415 8.14273 4.81694 8.01576C4.69973 7.88878 4.54076 7.81744 4.375 7.81744C4.20924 7.81744 4.05027 7.88878 3.93306 8.01576C3.81585 8.14273 3.75 8.31495 3.75 8.49453C3.75 8.6741 3.81585 8.84632 3.93306 8.9733C4.05027 9.10028 4.20924 9.17161 4.375 9.17161ZM4.375 11.8799C4.54076 11.8799 4.69973 11.8086 4.81694 11.6816C4.93415 11.5547 5 11.3824 5 11.2029C5 11.0233 4.93415 10.8511 4.81694 10.7241C4.69973 10.5971 4.54076 10.5258 4.375 10.5258C4.20924 10.5258 4.05027 10.5971 3.93306 10.7241C3.81585 10.8511 3.75 11.0233 3.75 11.2029C3.75 11.3824 3.81585 11.5547 3.93306 11.6816C4.05027 11.8086 4.20924 11.8799 4.375 11.8799Z" fill="white"/>
<path fill-rule="evenodd" clip-rule="evenodd" d="M4.375 0.877319C4.49932 0.877319 4.61855 0.930821 4.70646 1.02605C4.79436 1.12129 4.84375 1.25045 4.84375 1.38513V1.90175C5.2575 1.89294 5.71312 1.89294 6.21437 1.89294H8.785C9.28687 1.89294 9.7425 1.89294 10.1562 1.90175V1.38513C10.1562 1.25045 10.2056 1.12129 10.2935 1.02605C10.3814 0.930821 10.5007 0.877319 10.625 0.877319C10.7493 0.877319 10.8685 0.930821 10.9565 1.02605C11.0444 1.12129 11.0937 1.25045 11.0937 1.38513V1.94508C11.2562 1.95862 11.41 1.97555 11.5556 1.99654C12.2881 2.10352 12.8812 2.32831 13.3494 2.83477C13.8169 3.3419 14.0244 3.98445 14.1231 4.778C14.2187 5.54987 14.2187 6.53503 14.2187 7.77951V9.20951C14.2187 10.454 14.2187 11.4398 14.1231 12.211C14.0244 13.0046 13.8169 13.6471 13.3494 14.1542C12.8812 14.6607 12.2881 14.8855 11.5556 14.9925C10.8431 15.0961 9.93375 15.0961 8.785 15.0961H6.215C5.06625 15.0961 4.15625 15.0961 3.44437 14.9925C2.71187 14.8855 2.11875 14.6607 1.65062 14.1542C1.18312 13.6471 0.975625 13.0046 0.876875 12.211C0.78125 11.4391 0.78125 10.454 0.78125 9.20951V7.77951C0.78125 6.53503 0.78125 5.54919 0.876875 4.778C0.975625 3.98445 1.18312 3.3419 1.65062 2.83477C2.11875 2.32831 2.71187 2.10352 3.44437 1.99654C3.59 1.97555 3.74437 1.95862 3.90625 1.94508V1.38513C3.90625 1.25045 3.95564 1.12129 4.04354 1.02605C4.13145 0.930821 4.25068 0.877319 4.375 0.877319ZM3.56875 3.00336C2.94062 3.09477 2.57812 3.26675 2.31375 3.55315C2.04937 3.83956 1.89062 4.23227 1.80625 4.91341C1.79188 5.02852 1.78 5.15039 1.77 5.27836H13.23C13.22 5.14971 13.2081 5.02852 13.1937 4.91274C13.1094 4.23227 12.9506 3.83956 12.6862 3.55315C12.4219 3.26675 12.0594 3.09477 11.4306 3.00336C10.7887 2.90992 9.94187 2.90857 8.75 2.90857H6.25C5.05812 2.90857 4.21187 2.90992 3.56875 3.00336ZM1.71875 7.81742C1.71875 7.23919 1.71875 6.73612 1.72687 6.29399H13.2731C13.2812 6.73612 13.2812 7.23919 13.2812 7.81742V9.17159C13.2812 10.4628 13.28 11.3802 13.1937 12.0763C13.1094 12.7567 12.9506 13.1495 12.6862 13.4359C12.4219 13.7223 12.0594 13.8942 11.4306 13.9857C10.7887 14.0791 9.94187 14.0804 8.75 14.0804H6.25C5.05812 14.0804 4.21187 14.0791 3.56875 13.9857C2.94062 13.8942 2.57812 13.7223 2.31375 13.4359C2.04937 13.1495 1.89062 12.7567 1.80625 12.0756C1.72 11.3802 1.71875 10.4628 1.71875 9.17159V7.81742Z" fill="white"/>
</svg>
