<svg width="162" height="26" viewBox="0 0 162 26" fill="none" xmlns="http://www.w3.org/2000/svg">
<g clip-path="url(#clip0_10_188)">
<mask id="mask0_10_188" style="mask-type:luminance" maskUnits="userSpaceOnUse" x="0" y="0" width="162" height="26">
<path d="M161.75 0.528809H0.75V25.4711H161.75V0.528809Z" fill="white"/>
</mask>
<g mask="url(#mask0_10_188)">
<path d="M25.1989 16.9001L28.0576 15.8265V8.58233L25.1989 7.50873C23.3665 3.50908 19.269 0.722046 14.5044 0.722046C9.73985 0.722046 5.6424 3.50908 3.81002 7.50873L0.951263 8.58233V15.8255L3.81002 16.8991C4.48119 18.3641 5.45725 19.6654 6.65771 20.7282V21.5011H4.52949L3.12376 25.621H25.8851L24.4794 21.5011H22.2838V20.7883C23.5154 19.7157 24.5146 18.3917 25.1989 16.9001ZM11.381 4.22778H17.6278V5.76671H11.381V4.22778ZM21.5663 16.1074L19.4109 18.2191H9.54766L7.37516 16.0907V9.19455L9.54464 7.06903H19.4441L21.5653 9.14723V16.1074H21.5663Z" fill="#CC6237"/>
<path d="M81.0749 8.45612C76.2872 8.45612 72.391 12.2724 72.391 16.9641C72.391 21.6549 76.2862 25.4721 81.0749 25.4721C85.8637 25.4721 89.7589 21.6558 89.7589 16.9641C89.7579 12.2724 85.8627 8.45612 81.0749 8.45612ZM82.4404 16.9217C82.4636 17.6601 81.8699 18.2793 81.1162 18.3019C80.6231 18.3197 80.2921 18.0811 80.1381 17.9391C79.9842 17.7972 79.7235 17.4876 79.7084 17.0045C79.6853 16.2661 80.279 15.647 81.0327 15.6243C81.0468 15.6243 81.0608 15.6233 81.0759 15.6233C81.8095 15.6243 82.4183 16.1981 82.4404 16.9217Z" fill="#D8BCA9"/>
<path d="M38.0648 15.0594H40.7877V25.3745H47.4279V15.0594H50.1509V8.55273H38.0648V15.0594Z" fill="#D8BCA9"/>
<path d="M91.5389 8.6405V25.3736H98.0494V23.1416H104.877L107.961 20.1209V11.7667L104.769 8.6405H91.5389ZM101.449 16.763H98.0494V15.02H101.449V16.763Z" fill="#D8BCA9"/>
<path d="M52.2006 25.3726H58.711V14.9352H63.694L60.3794 18.1827V25.3726H70.5415V18.994H68.7594L70.6099 17.1801V8.55573H52.2006V25.3726Z" fill="#D8BCA9"/>
<path d="M109.942 8.6405V25.3745H116.454V15.019H118.219V25.3745H124.729V8.6405H109.942Z" fill="#D8BCA9"/>
<path d="M131.794 7.55701H131.802V7.56391H131.794V7.55701ZM131.794 11.9993H133.533C134.052 11.9944 134.436 12.1058 134.686 12.3325C134.935 12.5593 135.088 12.8166 135.147 13.1025C135.205 13.3884 135.233 13.7167 135.233 14.0874V19.5303C135.233 19.901 135.204 20.2273 135.147 20.5112C135.088 20.7952 134.935 21.0505 134.686 21.2773C134.436 21.505 134.055 21.6184 133.541 21.6184H131.795V11.9993H131.794ZM133.684 20.0301C133.724 19.9878 133.75 19.9217 133.763 19.83C133.775 19.7383 133.782 19.6013 133.782 19.4189V14.2205C133.782 14.0381 133.774 13.8971 133.759 13.7985C133.744 13.6999 133.716 13.6299 133.676 13.5875C133.635 13.5451 133.572 13.5244 133.486 13.5244H133.245V20.0923H133.494C133.58 20.0932 133.643 20.0716 133.684 20.0301Z" fill="#CC6237"/>
<path d="M136.971 11.9993H138.475V21.6184H136.971V11.9993Z" fill="#CC6237"/>
<path d="M140.595 21.155C140.34 20.7873 140.213 20.2678 140.213 19.5964V13.9839C140.213 13.6132 140.242 13.2869 140.3 13.0029C140.358 12.719 140.511 12.4637 140.761 12.2369C141.01 12.0102 141.392 11.8968 141.906 11.8968H142.042C142.687 11.8968 143.127 12.0634 143.364 12.3966C143.6 12.7298 143.724 13.1557 143.734 13.6743V15.4962H142.283V13.7335C142.283 13.6299 142.254 13.5521 142.197 13.4998C142.138 13.4476 142.072 13.4219 141.996 13.4219H141.951C141.871 13.4219 141.81 13.4426 141.77 13.485C141.73 13.5274 141.703 13.5944 141.69 13.6891C141.677 13.7827 141.671 13.9208 141.671 14.1041V19.4061C141.671 19.692 141.688 19.8921 141.724 20.0055C141.759 20.1189 141.832 20.179 141.943 20.183H141.988C142.094 20.178 142.169 20.1475 142.215 20.0903C142.26 20.0331 142.283 19.9483 142.283 19.835V17.4876H141.928V16.2504H143.742V21.6115H142.767V20.8928H142.699C142.694 20.9864 142.684 21.0683 142.669 21.1373C142.638 21.3246 142.54 21.4666 142.374 21.5632C142.208 21.6598 142.008 21.7071 141.777 21.7071H141.678C141.211 21.7071 140.849 21.5228 140.595 21.155Z" fill="#CC6237"/>
<path d="M145.556 11.9993H147.061V21.6184H145.556V11.9993Z" fill="#CC6237"/>
<path d="M149.721 13.5245H148.8V11.9993H152.11V13.5245H151.188V21.6174H149.722V13.5245H149.721Z" fill="#CC6237"/>
<path d="M154.135 11.9993H156.137L157.218 21.6184H155.737L155.532 19.6339H154.738L154.519 21.6184H153.053L154.135 11.9993ZM154.989 18.2418H155.284C155.319 18.2418 155.349 18.2448 155.374 18.2497L155.398 18.2576L155.42 18.2428L155.405 18.1984C155.405 18.1639 155.402 18.1314 155.397 18.1018L155.185 14.9471C155.18 14.8435 155.175 14.7223 155.17 14.5843C155.165 14.4462 155.162 14.3299 155.162 14.2363H155.102C155.102 14.3299 155.099 14.4462 155.094 14.5843C155.089 14.7223 155.084 14.8435 155.079 14.9471L154.882 18.1018L154.874 18.1462L154.867 18.1984L154.852 18.2428L154.874 18.2576L154.904 18.2497C154.931 18.2438 154.959 18.2418 154.989 18.2418Z" fill="#CC6237"/>
<path d="M158.805 11.9993H160.339V20.0933H161.549V21.6184H158.805V11.9993Z" fill="#CC6237"/>
<path d="M161.549 8.59418H131.794V10.0671H161.549V8.59418Z" fill="#CC6237"/>
<path d="M161.549 23.8622H131.794V25.3351H161.549V23.8622Z" fill="#CC6237"/>
</g>
</g>
<defs>
<clipPath id="clip0_10_188">
<rect width="161" height="25" fill="white" transform="translate(0.75 0.5)"/>
</clipPath>
</defs>
</svg>
