<svg width="15" height="16" viewBox="0 0 15 16" fill="none" xmlns="http://www.w3.org/2000/svg">
<g clip-path="url(#clip0_24_48)">
<path d="M2.62503 5.39105C2.62503 4.83078 2.83515 4.29346 3.20916 3.89729C3.58316 3.50112 4.09043 3.27855 4.61935 3.27855C5.14828 3.27855 5.65554 3.50112 6.02955 3.89729C6.40355 4.29346 6.61367 4.83078 6.61367 5.39105C6.61367 5.95132 6.40355 6.48864 6.02955 6.88481C5.65554 7.28098 5.14828 7.50355 4.61935 7.50355C4.09043 7.50355 3.58316 7.28098 3.20916 6.88481C2.83515 6.48864 2.62503 5.95132 2.62503 5.39105ZM4.61935 2.33966C3.85535 2.33966 3.12263 2.66115 2.5824 3.23339C2.04217 3.80564 1.73867 4.58177 1.73867 5.39105C1.73867 6.20033 2.04217 6.97646 2.5824 7.54871C3.12263 8.12095 3.85535 8.44244 4.61935 8.44244C5.38336 8.44244 6.11607 8.12095 6.6563 7.54871C7.19653 6.97646 7.50003 6.20033 7.50003 5.39105C7.50003 4.58177 7.19653 3.80564 6.6563 3.23339C6.11607 2.66115 5.38336 2.33966 4.61935 2.33966ZM9.6601 13.273C10.137 13.4796 10.737 13.6063 11.4887 13.6063C13.1559 13.6063 14.0777 12.9791 14.5635 12.26C14.8169 11.8826 14.9758 11.4432 15.0253 10.9831C15.0297 10.9403 15.0326 10.8974 15.0341 10.8544V10.7897C15.0341 10.6047 14.9997 10.4216 14.9329 10.2507C14.8661 10.0798 14.7682 9.92459 14.6447 9.79382C14.5212 9.66304 14.3747 9.55931 14.2134 9.48853C14.0521 9.41775 13.8792 9.38133 13.7046 9.38133H9.60072C9.81344 9.6536 9.97299 9.97189 10.0661 10.3202H13.7046C13.8221 10.3202 13.9348 10.3697 14.018 10.4577C14.1011 10.5458 14.1478 10.6652 14.1478 10.7897V10.8404L14.1433 10.8873C14.1094 11.185 14.0058 11.469 13.842 11.7135C13.5521 12.1445 12.9228 12.6674 11.4887 12.6674C10.8399 12.6674 10.3559 12.5604 9.99337 12.4036C9.92069 12.6665 9.81522 12.9632 9.6601 13.273ZM-0.0340576 11.2591C-0.0340576 10.7611 0.152711 10.2835 0.485162 9.93132C0.817613 9.57916 1.26851 9.38133 1.73867 9.38133H7.50003C7.97019 9.38133 8.42109 9.57916 8.75354 9.93132C9.08599 10.2835 9.27276 10.7611 9.27276 11.2591V11.338C9.27276 11.3474 9.27276 11.3596 9.27099 11.3755C9.26021 11.5614 9.23501 11.7461 9.19565 11.9276C9.12031 12.2731 8.97051 12.735 8.66826 13.1988C8.04692 14.1509 6.84678 15.0147 4.61935 15.0147C2.39192 15.0147 1.19178 14.1509 0.570442 13.1988C0.243218 12.694 0.0391851 12.1111 -0.0234213 11.5023C-0.0287178 11.4477 -0.0322652 11.3929 -0.0340576 11.338V11.2591ZM0.852306 11.3154V11.3323L0.858511 11.4103C0.906538 11.8603 1.05811 12.2911 1.29992 12.6646C1.73158 13.3256 2.63656 14.0758 4.61935 14.0758C6.60215 14.0758 7.50712 13.3256 7.93878 12.6646C8.18066 12.2911 8.33224 11.8604 8.38019 11.4103C8.3831 11.3844 8.38487 11.3584 8.38551 11.3323L8.3864 11.3164V11.2591C8.3864 11.0101 8.29301 10.7713 8.12679 10.5952C7.96056 10.4191 7.73511 10.3202 7.50003 10.3202H1.73867C1.50359 10.3202 1.27814 10.4191 1.11192 10.5952C0.945691 10.7713 0.852306 11.0101 0.852306 11.2591V11.3154ZM10.1591 6.09522C10.1591 5.7217 10.2992 5.36349 10.5485 5.09937C10.7979 4.83526 11.1361 4.68688 11.4887 4.68688C11.8413 4.68688 12.1795 4.83526 12.4288 5.09937C12.6781 5.36349 12.8182 5.7217 12.8182 6.09522C12.8182 6.46873 12.6781 6.82694 12.4288 7.09106C12.1795 7.35517 11.8413 7.50355 11.4887 7.50355C11.1361 7.50355 10.7979 7.35517 10.5485 7.09106C10.2992 6.82694 10.1591 6.46873 10.1591 6.09522ZM11.4887 3.74799C10.901 3.74799 10.3373 3.99529 9.92179 4.43548C9.50622 4.87567 9.27276 5.47269 9.27276 6.09522C9.27276 6.71774 9.50622 7.31476 9.92179 7.75495C10.3373 8.19514 10.901 8.44244 11.4887 8.44244C12.0764 8.44244 12.64 8.19514 13.0556 7.75495C13.4711 7.31476 13.7046 6.71774 13.7046 6.09522C13.7046 5.47269 13.4711 4.87567 13.0556 4.43548C12.64 3.99529 12.0764 3.74799 11.4887 3.74799Z" fill="#252525"/>
</g>
<defs>
<clipPath id="clip0_24_48">
<rect width="15" height="13" fill="white" transform="translate(0 1.94238)"/>
</clipPath>
</defs>
</svg>
